<svg width="55" height="55" viewBox="0 0 55 55" fill="none" xmlns="http://www.w3.org/2000/svg">
<circle cx="27.5" cy="27.5" r="27.5" fill="#F3F6FB"/>
<path d="M42.0764 41.1323H41.1535V16.42C41.1535 14.5346 39.7734 13 38.0769 13H29.6152C27.9187 13 26.5385 14.5346 26.5385 16.42V20.9579C26.291 20.8997 26.0366 20.8584 25.7694 20.8584H17.3077C15.6112 20.8584 14.231 22.1166 14.231 23.6634V41.1315H12.9229C12.4134 41.1323 12 41.5504 12 42.0658C12 42.5811 12.4134 42.9992 12.9229 42.9992H42.0764C42.5859 42.9992 42.9992 42.5811 42.9992 42.0658C42.9992 41.5504 42.5866 41.1323 42.0764 41.1323ZM16.6922 23.6642C16.6922 23.5723 16.908 23.3487 17.3077 23.3487H25.7694C26.1683 23.3487 26.3849 23.5723 26.3849 23.6642V41.1323H16.6922V23.6642ZM28.9997 16.42C28.9997 15.8717 29.3238 15.4903 29.6152 15.4903H38.0769C38.3683 15.4903 38.6923 15.8717 38.6923 16.42V41.1323H28.9997V16.42Z" fill="#A5BCE0"/>
<path d="M32.3505 16.5425H30.8288C30.3375 16.5425 29.9377 16.946 29.9377 17.4438V18.983C29.9377 19.4808 30.3367 19.8843 30.8288 19.8843H32.3505C32.8418 19.8843 33.2415 19.4808 33.2415 18.983V17.4438C33.2415 16.946 32.8426 16.5425 32.3505 16.5425Z" fill="#A5BCE0"/>
<path d="M32.3505 20.8997H30.8288C30.3375 20.8997 29.9377 21.3033 29.9377 21.8011V23.3403C29.9377 23.8372 30.3367 24.2416 30.8288 24.2416H32.3505C32.8418 24.2416 33.2415 23.838 33.2415 23.3403V21.8011C33.2415 21.3033 32.8426 20.8997 32.3505 20.8997Z" fill="#A5BCE0"/>
<path d="M32.3505 25.257H30.8288C30.3375 25.257 29.9377 25.6606 29.9377 26.1583V27.6975C29.9377 28.1945 30.3367 28.5988 30.8288 28.5988H32.3505C32.8418 28.5988 33.2415 28.1953 33.2415 27.6975V26.1583C33.2415 25.6606 32.8426 25.257 32.3505 25.257Z" fill="#A5BCE0"/>
<path d="M36.8632 16.5425H35.3415C34.8502 16.5425 34.4504 16.946 34.4504 17.4438V18.983C34.4504 19.4808 34.8494 19.8843 35.3415 19.8843H36.8632C37.3545 19.8843 37.7542 19.4808 37.7542 18.983V17.4438C37.7542 16.946 37.3553 16.5425 36.8632 16.5425Z" fill="#A5BCE0"/>
<path d="M36.8632 20.8997H35.3415C34.8502 20.8997 34.4504 21.3033 34.4504 21.8011V23.3403C34.4504 23.8372 34.8494 24.2416 35.3415 24.2416H36.8632C37.3545 24.2416 37.7542 23.838 37.7542 23.3403V21.8011C37.7542 21.3033 37.3553 20.8997 36.8632 20.8997Z" fill="#A5BCE0"/>
<path d="M36.8632 25.257H35.3415C34.8502 25.257 34.4504 25.6606 34.4504 26.1583V27.6975C34.4504 28.1945 34.8494 28.5988 35.3415 28.5988H36.8632C37.3545 28.5988 37.7542 28.1953 37.7542 27.6975V26.1583C37.7542 25.6606 37.3553 25.257 36.8632 25.257Z" fill="#A5BCE0"/>
<path d="M32.3505 29.6143H30.8288C30.3375 29.6143 29.9377 30.0178 29.9377 30.5156V32.0548C29.9377 32.5518 30.3367 32.9561 30.8288 32.9561H32.3505C32.8418 32.9561 33.2415 32.5525 33.2415 32.0548V30.5156C33.2415 30.0178 32.8426 29.6143 32.3505 29.6143Z" fill="#A5BCE0"/>
<path d="M32.3505 33.9715H30.8288C30.3375 33.9715 29.9377 34.3751 29.9377 34.8728V36.412C29.9377 36.909 30.3367 37.3134 30.8288 37.3134H32.3505C32.8418 37.3134 33.2415 36.9098 33.2415 36.412V34.8728C33.2415 34.3751 32.8426 33.9715 32.3505 33.9715Z" fill="#A5BCE0"/>
<path d="M36.8632 29.6143H35.3415C34.8502 29.6143 34.4504 30.0178 34.4504 30.5156V32.0548C34.4504 32.5518 34.8494 32.9561 35.3415 32.9561H36.8632C37.3545 32.9561 37.7542 32.5525 37.7542 32.0548V30.5156C37.7542 30.0178 37.3553 29.6143 36.8632 29.6143Z" fill="#A5BCE0"/>
<path d="M36.8632 33.9715H35.3415C34.8502 33.9715 34.4504 34.3751 34.4504 34.8728V36.412C34.4504 36.909 34.8494 37.3134 35.3415 37.3134H36.8632C37.3545 37.3134 37.7542 36.9098 37.7542 36.412V34.8728C37.7542 34.3751 37.3553 33.9715 36.8632 33.9715Z" fill="#A5BCE0"/>
<path d="M20.0431 25.257H18.5214C18.0293 25.257 17.6304 25.6606 17.6304 26.1583V27.6975C17.6304 28.1945 18.0293 28.5988 18.5214 28.5988H20.0431C20.5352 28.5988 20.9342 28.1953 20.9342 27.6975V26.1583C20.9342 25.6606 20.5352 25.257 20.0431 25.257Z" fill="#A5BCE0"/>
<path d="M24.5558 25.257H23.0341C22.5428 25.257 22.1431 25.6606 22.1431 26.1583V27.6975C22.1431 28.1945 22.542 28.5988 23.0341 28.5988H24.5558C25.0471 28.5988 25.4469 28.1953 25.4469 27.6975V26.1583C25.4469 25.6606 25.0479 25.257 24.5558 25.257Z" fill="#A5BCE0"/>
<path d="M20.0431 29.6143H18.5214C18.0293 29.6143 17.6304 30.0178 17.6304 30.5156V32.0548C17.6304 32.5518 18.0293 32.9561 18.5214 32.9561H20.0431C20.5352 32.9561 20.9342 32.5525 20.9342 32.0548V30.5156C20.9342 30.0178 20.5352 29.6143 20.0431 29.6143Z" fill="#A5BCE0"/>
<path d="M20.0431 33.9715H18.5214C18.0293 33.9715 17.6304 34.3751 17.6304 34.8728V36.412C17.6304 36.909 18.0293 37.3134 18.5214 37.3134H20.0431C20.5352 37.3134 20.9342 36.9098 20.9342 36.412V34.8728C20.9342 34.3751 20.5352 33.9715 20.0431 33.9715Z" fill="#A5BCE0"/>
<path d="M24.5558 29.6143H23.0341C22.5428 29.6143 22.1431 30.0178 22.1431 30.5156V32.0548C22.1431 32.5518 22.542 32.9561 23.0341 32.9561H24.5558C25.0471 32.9561 25.4469 32.5525 25.4469 32.0548V30.5156C25.4469 30.0178 25.0479 29.6143 24.5558 29.6143Z" fill="#A5BCE0"/>
<path d="M24.5558 33.9715H23.0341C22.5428 33.9715 22.1431 34.3751 22.1431 34.8728V36.412C22.1431 36.909 22.542 37.3134 23.0341 37.3134H24.5558C25.0471 37.3134 25.4469 36.9098 25.4469 36.412V34.8728C25.4469 34.3751 25.0479 33.9715 24.5558 33.9715Z" fill="#A5BCE0"/>
</svg>
